<svg xmlns="http://www.w3.org/2000/svg" version="1.1" xmlns:xlink="http://www.w3.org/1999/xlink" width="1000" height="1000"><g clip-path="url(#SvgjsClipPath1121)"><rect width="1000" height="1000" fill="#ffffff"></rect><g transform="matrix(50,0,0,50,100,100)"><svg xmlns="http://www.w3.org/2000/svg" version="1.1" xmlns:xlink="http://www.w3.org/1999/xlink" width="16" height="16"><svg xmlns="http://www.w3.org/2000/svg" width="16" height="16" viewBox="0 0 16 16"><path fill="#8e51ff" fill-rule="evenodd" d="M3 13.5a.5.5 0 0 1-.5-.5V3a.5.5 0 0 1 .5-.5h9.25a.75.75 0 0 0 0-1.5H3a2 2 0 0 0-2 2v10a2 2 0 0 0 2 2h10a2 2 0 0 0 2-2V9.75a.75.75 0 0 0-1.5 0V13a.5.5 0 0 1-.5.5zm12.78-8.82a.75.75 0 0 0-1.06-1.06L9.162 9.177L7.289 7.241a.75.75 0 1 0-1.078 1.043l2.403 2.484a.75.75 0 0 0 1.07.01z" clip-rule="evenodd"></path></svg></svg></g></g><defs><clipPath id="SvgjsClipPath1121"><rect width="1000" height="1000" x="0" y="0" rx="150" ry="150"></rect></clipPath></defs></svg>